PathFileType	4	(X/Y/Z)	C:/Users/CLatella/Desktop/xsens/test 26Settembre2016/Meri-002.trc	
DataRate	CameraRate	NumFrames	NumMarkers	Units	OrigDataRate	OrigDataStartFrame	OrigNumFrames	
240.00	240.00	4	64	mm	240.00	531	1060	
Frame#	Time	pHipOrigin			pRightASI			pLeftASI			pRightCSI			pLeftCSI			pRightIschialTub			pLeftIschialTub			pSacrum			pL5SpinalProcess			pL3SpinalProcess			pT12SpinalProcess			pPX			pIJ			pT4SpinalProcess			pT8SpinalProcess			pC7SpinalProcess			pTopOfHead			pRightAuricularis			pLeftAuricularis			pBackOfHead			pRightAcromion			pLeftAcromion			pRightArmLatEpicondyle			pRightArmMedEpicondyle			pLeftArmLatEpicondyle			pLeftArmMedEpicondyle			pRightUlnarStyloid			pRightRadialStyloid			pRightOlecranon			pLeftUlnarStyloid			pLeftRadialStyloid			pLeftOlecranon			pRightTopOfHand			pRightPinky			pRightBallHand			pLeftTopOfHand			pLeftPinky			pLeftBallHand			pRightGreaterTrochanter			pRightKneeLatEpicondyle			pRightKneeMedEpicondyle			pRightPatella			pLeftGreaterTrochanter			pLeftKneeLatEpicondyle			pLeftKneeMedEpicondyle			pLeftPatella			pRightLatMalleolus			pRightMedMalleolus			pRightTibialTub			pLeftLatMalleolus			pLeftMedMalleolus			pLeftTibialTub			pRightHeelFoot			pRightFirstMetatarsal			pRightFifthMetatarsal			pRightPivotFoot			pRightHeelCenter			pRightToe			pLeftHeelFoot			pLeftFirstMetatarsal			pLeftFifthMetatarsal			pLeftPivotFoot			pLeftHeelCenter			pLeftToe			
		X1	Y1	Z1	X2	Y2	Z2	X3	Y3	Z3	X4	Y4	Z4	X5	Y5	Z5	X6	Y6	Z6	X7	Y7	Z7	X8	Y8	Z8	X9	Y9	Z9	X10	Y10	Z10	X11	Y11	Z11	X12	Y12	Z12	X13	Y13	Z13	X14	Y14	Z14	X15	Y15	Z15	X16	Y16	Z16	X17	Y17	Z17	X18	Y18	Z18	X19	Y19	Z19	X20	Y20	Z20	X21	Y21	Z21	X22	Y22	Z22	X23	Y23	Z23	X24	Y24	Z24	X25	Y25	Z25	X26	Y26	Z26	X27	Y27	Z27	X28	Y28	Z28	X29	Y29	Z29	X30	Y30	Z30	X31	Y31	Z31	X32	Y32	Z32	X33	Y33	Z33	X34	Y34	Z34	X35	Y35	Z35	X36	Y36	Z36	X37	Y37	Z37	X38	Y38	Z38	X39	Y39	Z39	X40	Y40	Z40	X41	Y41	Z41	X42	Y42	Z42	X43	Y43	Z43	X44	Y44	Z44	X45	Y45	Z45	X46	Y46	Z46	X47	Y47	Z47	X48	Y48	Z48	X49	Y49	Z49	X50	Y50	Z50	X51	Y51	Z51	X52	Y52	Z52	X53	Y53	Z53	X54	Y54	Z54	X55	Y55	Z55	X56	Y56	Z56	X57	Y57	Z57	X58	Y58	Z58	X59	Y59	Z59	X60	Y60	Z60	X61	Y61	Z61	X62	Y62	Z62	X63	Y63	Z63	X64	Y64	Z64	

531	2.208	169.23919	13.83277	924.39854	269.31453	-97.42864	964.44865	248.59035	141.22409	962.75077	266.76771	-76.20508	1044.09944	249.68898	120.99928	1042.70118	105.91806	-41.44837	904.87286	97.37870	57.12884	904.17373	118.15282	9.73787	974.68590	183.22177	16.22978	1027.66990	247.84128	18.37711	1112.06478	312.86029	19.12618	1179.93024	462.42399	22.72170	1124.99866	550.01488	20.67425	1192.71432	450.83842	17.22854	1286.24781	384.67084	18.62680	1239.35622	488.29177	17.82779	1313.56378	729.69107	23.12120	1386.52290	639.05397	-44.44464	1358.30805	641.20130	85.04407	1342.62758	608.09254	25.61809	1390.11842	501.37547	-146.66731	1298.88207	469.81478	194.60759	1270.81703	358.05400	-192.61008	1014.78595	356.25624	-131.98559	1008.19416	307.56688	186.46773	993.16288	309.91396	125.49368	994.36139	388.51605	-124.99430	786.86985	429.66480	-105.56850	798.90486	336.68062	-174.38278	1006.39640	340.27614	140.42508	766.09573	379.67706	116.75457	776.28304	289.08990	170.23795	989.26774	580.47694	-128.93939	789.11705	506.21944	-127.74088	753.41153	441.64987	-110.91184	772.53770	500.62640	223.12207	741.97577	421.97437	202.54770	728.29281	380.02663	150.26283	746.22048	183.52140	-135.88074	902.37597	168.34031	-143.17166	521.65022	161.74852	-70.11267	514.80874	205.89353	-100.42491	519.15333	106.61719	136.77962	901.22740	93.53349	128.98933	520.40177	151.81090	84.39487	513.61023	149.76345	137.92819	518.10463	143.37141	-169.18925	95.78069	145.96818	-106.56726	90.53722	229.86367	-109.06415	481.40035	79.15141	186.41779	98.27758	85.94295	124.34511	90.93673	184.91966	121.34884	478.25427	105.86813	-130.48746	-0.04994	253.53419	-123.24648	0.74907	242.09843	-189.01456	0.14981	266.61789	-158.50256	0.59925	144.86955	-137.32894	4.34459	342.32359	-171.63620	0.00000	42.54700	153.20916	1.64795	188.16561	128.04051	1.39826	184.81978	194.65753	1.24844	205.44409	161.39896	1.29838	82.09774	155.20667	5.84272	282.24842	165.29410	0.19975 
532	2.213	169.33907	13.93265	924.34860	269.46435	-97.27883	964.29884	248.74016	141.37390	962.60095	267.01739	-76.05526	1043.99956	249.88873	121.14909	1042.55136	105.96800	-41.34849	904.97274	97.42864	57.22871	904.22367	118.30264	9.83775	974.73584	183.47146	16.37960	1027.61996	248.19085	18.52692	1111.91496	313.30973	19.27599	1179.68055	462.77355	22.92145	1124.54922	550.46432	20.87400	1192.11506	451.48761	17.37835	1285.79837	385.22016	18.82655	1239.00665	488.94096	17.97761	1313.06440	730.44014	23.32095	1385.72390	639.75310	-44.29482	1357.65886	641.90043	85.24382	1341.87851	608.79167	25.81784	1389.46923	502.02466	-146.46756	1298.43263	470.36410	194.75740	1270.31765	358.05400	-192.61008	1014.63614	356.25624	-131.98559	1008.04435	307.56688	186.56761	993.01307	309.91396	125.64349	994.21158	388.46611	-124.94437	786.72004	429.66480	-105.51856	798.75504	336.73056	-174.33285	1006.24659	340.22620	140.47502	765.94591	379.62712	116.80450	776.18316	289.03996	170.33782	989.16786	580.47694	-128.88945	789.11705	506.21944	-127.69094	753.31165	441.64987	-110.81197	772.43783	500.62640	223.12207	741.92583	421.97437	202.54770	728.19294	380.02663	150.26283	746.07067	183.57134	-135.78087	902.37597	168.34031	-143.17166	521.65022	161.79846	-70.06273	514.75880	205.94347	-100.37497	519.15333	106.66713	136.92944	901.22740	93.53349	129.03926	520.40177	151.86084	84.49475	513.56029	149.76345	137.97813	518.10463	143.37141	-169.18925	95.78069	145.96818	-106.56726	90.53722	229.86367	-109.01421	481.35041	79.15141	186.41779	98.22764	85.94295	124.34511	90.93673	184.96960	121.39878	478.20433	105.86813	-130.53740	-0.04994	253.48425	-123.14660	0.74907	242.09843	-188.91468	0.14981	266.61789	-158.35275	0.59925	144.86955	-137.32894	4.34459	342.37353	-171.48639	0.04994	42.54700	153.25910	1.59801	188.16561	128.04051	1.39826	184.81978	194.70747	1.19851	205.49403	161.39896	1.29838	82.09774	155.20667	5.79278	282.24842	165.29410	0.14981 
533	2.217	169.43894	14.08246	924.34860	269.61416	-97.12901	964.14902	248.84004	141.52371	962.45114	267.31702	-75.90545	1043.84975	250.13842	121.34884	1042.45149	106.06788	-41.24862	905.02267	97.47858	57.37853	904.32355	118.45245	9.98756	974.78577	183.67121	16.52941	1027.57003	248.54041	18.67674	1111.76515	313.75917	19.42580	1179.48080	463.12312	23.07126	1124.09978	550.91376	21.02381	1191.51581	452.08687	17.57810	1285.39887	385.76947	18.97636	1238.65709	489.59015	18.17736	1312.56503	731.18921	23.47076	1384.92489	640.45223	-44.09507	1356.95973	642.59956	85.39363	1341.17938	609.54074	25.96765	1388.82004	502.62392	-146.26780	1297.98319	470.91341	194.95715	1269.86821	358.05400	-192.56014	1014.48632	356.30617	-131.93566	1007.84460	307.51695	186.66748	992.86326	309.96390	125.74337	994.06176	388.46611	-124.89443	786.57022	429.66480	-105.46862	798.60523	336.73056	-174.33285	1006.09677	340.17627	140.47502	765.84604	379.57719	116.80450	776.03335	289.03996	170.43770	989.01805	580.47694	-128.83951	789.06711	506.21944	-127.59107	753.26171	441.69980	-110.76203	772.28801	500.57647	223.12207	741.82596	421.92444	202.54770	728.09306	379.97669	150.26283	745.97079	183.67121	-135.68099	902.37597	168.34031	-143.12172	521.65022	161.79846	-70.06273	514.75880	205.94347	-100.37497	519.10339	106.76701	137.02931	901.17746	93.53349	129.08920	520.35183	151.86084	84.54469	513.56029	149.81339	138.02807	518.05469	143.32147	-169.18925	95.78069	145.91824	-106.56726	90.53722	229.91361	-109.01421	481.35041	79.15141	186.41779	98.22764	85.94295	124.34511	90.93673	184.96960	121.44872	478.20433	105.86813	-130.58734	-0.04994	253.48425	-123.14660	0.74907	242.09843	-188.86474	0.14981	266.61789	-158.35275	0.59925	144.81961	-137.32894	4.34459	342.37353	-171.38652	0.04994	42.54700	153.25910	1.54807	188.21555	128.04051	1.34832	184.86972	194.70747	1.19851	205.49403	161.44889	1.29838	82.09774	155.25661	5.79278	282.24842	165.29410	0.14981 
534	2.221	169.48888	14.18233	924.34860	269.76397	-97.02914	964.04915	248.98985	141.62359	962.30133	267.56671	-75.75564	1043.69993	250.38811	121.49866	1042.30167	106.11782	-41.09881	905.07261	97.52852	57.47840	904.37348	118.60227	10.13737	974.83571	183.92090	16.67922	1027.52009	248.88997	18.82655	1111.66527	314.20861	19.57562	1179.23111	463.47268	23.27101	1123.65034	551.41314	21.22356	1190.96649	452.68612	17.72792	1284.94942	386.26885	19.12618	1238.35746	490.23934	18.32717	1312.06565	731.88834	23.67052	1384.17583	641.10142	-43.94526	1356.31054	643.29869	85.59338	1340.48025	610.28980	26.16741	1388.17085	503.27311	-146.11799	1297.48381	471.46273	195.10697	1269.41877	358.10393	-192.51020	1014.38645	356.30617	-131.88572	1007.69478	307.51695	186.76736	992.76338	309.96390	125.84325	993.91195	388.46611	-124.79455	786.42041	429.66480	-105.41869	798.45542	336.73056	-174.28291	1005.94696	340.12633	140.47502	765.69622	379.57719	116.85444	775.93347	289.03996	170.53757	988.86823	580.47694	-128.83951	789.06711	506.26937	-127.54113	753.16184	441.69980	-110.71209	772.18814	500.57647	223.12207	741.72608	421.92444	202.54770	727.94325	379.97669	150.26283	745.82098	183.72115	-135.53118	902.37597	168.39025	-143.12172	521.65022	161.84840	-70.01279	514.75880	205.99341	-100.37497	519.10339	106.81695	137.12919	901.17746	93.58343	129.13914	520.35183	151.91077	84.59463	513.56029	149.81339	138.12794	518.05469	143.32147	-169.23919	95.78069	145.91824	-106.61719	90.53722	229.91361	-109.01421	481.35041	79.20134	186.46773	98.17771	85.94295	124.39505	90.88679	185.01953	121.54860	478.15440	105.81819	-130.58734	-0.04994	253.43431	-123.19654	0.74907	242.09843	-188.91468	0.19975	266.56795	-158.40269	0.59925	144.81961	-137.37888	4.34459	342.32359	-171.48639	0.04994	42.54700	153.25910	1.54807	188.21555	128.14038	1.34832	184.81978	194.80734	1.14857	205.49403	161.49883	1.24844	82.09774	155.25661	5.74285	282.24842	165.44392	0.14981 
